<svg xmlns="http://www.w3.org/2000/svg" style="display: none;">

    <symbol id="full-color" viewBox="0 0 205.076 56.394">
        <path fill="#2F4650" d="M21.827,17.964h-0.113c-0.785-0.935-1.889-1.795-3.31-2.581c-1.422-0.786-3.161-1.178-5.218-1.178
    c-2.02,0-3.844,0.392-5.471,1.178c-1.627,0.786-3.011,1.851-4.152,3.197c-1.141,1.348-2.02,2.908-2.637,4.685
    C0.309,25.042,0,26.903,0,28.848c0,1.943,0.299,3.813,0.898,5.608c0.598,1.797,1.467,3.378,2.609,4.742
    c1.141,1.365,2.534,2.459,4.18,3.281s3.516,1.234,5.611,1.234c1.87,0,3.637-0.383,5.302-1.148c1.664-0.768,2.946-1.863,3.844-3.283
    h0.112v3.646h8.473V0.002h-9.202V17.964z M21.743,31.539c-0.319,0.863-0.768,1.63-1.347,2.303c-0.581,0.672-1.282,1.215-2.104,1.626
    c-0.823,0.412-1.759,0.617-2.806,0.617c-1.085,0-2.039-0.205-2.861-0.617c-0.823-0.411-1.515-0.954-2.076-1.626
    c-0.561-0.673-0.982-1.449-1.263-2.329c-0.28-0.877-0.421-1.767-0.421-2.664c0-0.898,0.141-1.776,0.421-2.637
    c0.281-0.861,0.702-1.618,1.263-2.273c0.561-0.654,1.253-1.188,2.076-1.598c0.822-0.411,1.776-0.619,2.861-0.619
    c1.047,0,1.983,0.208,2.806,0.619c0.822,0.41,1.523,0.953,2.104,1.627c0.579,0.672,1.028,1.438,1.347,2.3
    c0.317,0.861,0.476,1.739,0.476,2.637C22.219,29.802,22.06,30.681,21.743,31.539 M37.862,42.929h9.202V14.99h-9.202V42.929z
     M70.427,14.205c-1.721,0-3.236,0.452-4.545,1.355c-1.31,0.905-2.319,2.072-3.03,3.503H62.74v-4.039h-8.865v27.905h9.202V28.605
    c0-0.56,0.112-1.211,0.337-1.958c0.224-0.745,0.589-1.435,1.094-2.069c0.505-0.634,1.178-1.175,2.02-1.622
    c0.841-0.448,1.879-0.673,3.114-0.673c0.373,0,0.757,0.019,1.15,0.057s0.794,0.112,1.206,0.224l0.393-8.136
    c-0.224-0.073-0.514-0.13-0.87-0.166C71.166,14.224,70.801,14.205,70.427,14.205 M99.767,18.132c-1.235-1.309-2.713-2.309-4.433-3
    c-1.721-0.693-3.61-1.039-5.667-1.039c-2.132,0-4.115,0.355-5.948,1.066s-3.422,1.71-4.769,2.999
    c-1.347,1.292-2.413,2.863-3.198,4.714c-0.786,1.852-1.178,3.918-1.178,6.2c0,2.355,0.401,4.451,1.206,6.285
    c0.804,1.832,1.908,3.373,3.31,4.627c1.403,1.254,3.039,2.207,4.91,2.861c1.87,0.654,3.852,0.982,5.947,0.982
    c2.843,0,5.34-0.516,7.491-1.545c2.151-1.027,3.88-2.494,5.19-4.401l-6.396-4.04c-0.637,0.859-1.459,1.562-2.469,2.104
    c-1.01,0.543-2.245,0.814-3.703,0.814c-0.824,0-1.619-0.132-2.385-0.393c-0.767-0.263-1.459-0.627-2.076-1.094
    c-0.617-0.47-1.122-1.021-1.515-1.656c-0.393-0.637-0.627-1.347-0.701-2.133h20.255c0.037-0.336,0.055-0.692,0.055-1.065v-1.122
    c0-2.393-0.346-4.526-1.037-6.396C101.964,21.03,101.001,19.441,99.767,18.132 M83.383,25.762c0.037-0.71,0.224-1.393,0.561-2.048
    c0.336-0.654,0.785-1.225,1.346-1.711c0.561-0.486,1.215-0.868,1.964-1.151c0.748-0.28,1.571-0.42,2.469-0.42
    c1.832,0,3.207,0.525,4.124,1.571c0.916,1.047,1.375,2.299,1.375,3.759H83.383z M118.676,23.938c0.561-0.654,1.233-1.178,2.02-1.57
    c0.785-0.393,1.664-0.589,2.637-0.589c0.936,0,1.852,0.205,2.749,0.617c0.897,0.411,1.608,0.953,2.132,1.627l5.331-6.171
    c-0.562-0.562-1.226-1.075-1.991-1.543c-0.768-0.467-1.609-0.86-2.525-1.177c-0.918-0.318-1.871-0.572-2.861-0.759
    c-0.992-0.188-1.992-0.28-3.002-0.28c-2.17,0-4.212,0.346-6.125,1.039c-1.913,0.691-3.575,1.681-4.986,2.971
    c-1.41,1.292-2.521,2.854-3.33,4.686s-1.213,3.89-1.213,6.171c0,2.318,0.403,4.395,1.213,6.227c0.81,1.833,1.92,3.395,3.33,4.684
    c1.411,1.291,3.073,2.273,4.986,2.947c1.913,0.672,3.973,1.01,6.182,1.01c2.055,0,4.002-0.318,5.834-0.953
    c1.832-0.637,3.33-1.516,4.489-2.637l-5.106-6.229c-0.561,0.675-1.299,1.188-2.215,1.544c-0.918,0.355-1.844,0.532-2.779,0.532
    c-1.01,0-1.916-0.187-2.721-0.562c-0.805-0.373-1.496-0.887-2.076-1.543c-0.58-0.654-1.02-1.41-1.318-2.271
    c-0.299-0.86-0.449-1.776-0.449-2.748c0-0.973,0.159-1.888,0.477-2.749C117.674,25.35,118.114,24.593,118.676,23.938 M148.867,7.64
    h-9.034v7.35H135.4v6.845h4.488v11.811c0,1.5,0.17,2.86,0.506,4.079c0.336,1.22,0.888,2.269,1.656,3.15
    c0.766,0.881,1.784,1.557,3.057,2.022c1.271,0.471,2.843,0.704,4.714,0.704c0.972,0,1.944-0.084,2.917-0.253
    c0.973-0.166,1.775-0.363,2.412-0.587l-0.111-6.733c-0.337,0.149-0.758,0.262-1.264,0.338c-0.504,0.074-0.981,0.11-1.43,0.11
    c-1.31,0-2.217-0.327-2.722-0.985c-0.505-0.657-0.757-1.643-0.757-2.957V21.835h6.564V14.99h-6.564V7.64z M160.285,42.929h9.37
    V0.001h-9.37V42.929z M195.312,14.99l-5.555,17.955h-0.168l-6.228-17.955H173.15l11.671,27.49l-0.898,2.301
    c-0.448,1.196-0.991,2.121-1.627,2.778c-0.637,0.652-1.665,0.979-3.086,0.979c-0.448,0-0.944-0.045-1.487-0.139
    s-1.037-0.217-1.486-0.365l-1.01,7.742c0.672,0.187,1.467,0.336,2.383,0.448c0.918,0.112,1.806,0.169,2.666,0.169
    c1.759,0,3.283-0.205,4.574-0.617c1.289-0.414,2.412-1.02,3.365-1.824c0.954-0.803,1.776-1.775,2.469-2.916
    c0.692-1.143,1.319-2.44,1.881-3.899l12.512-32.147H195.312z"/>
        <path fill="#10BACB" d="M42.463,0c-3.087,0-5.59,2.501-5.59,5.587c0,3.085,2.503,5.586,5.59,5.586s5.59-2.501,5.59-5.586
    C48.053,2.501,45.55,0,42.463,0"/>
    </symbol>

    <symbol id="full-color-inverted" viewBox="0 0 205.076 56.394">
        <path fill="#FFFFFF" d="M21.827,17.964h-0.113c-0.785-0.935-1.889-1.795-3.31-2.581c-1.422-0.786-3.161-1.178-5.218-1.178
    c-2.021,0-3.845,0.392-5.472,1.178s-3.011,1.851-4.151,3.197c-1.142,1.348-2.021,2.908-2.638,4.685C0.309,25.042,0,26.903,0,28.848
    c0,1.943,0.299,3.813,0.898,5.608c0.598,1.797,1.467,3.378,2.608,4.742c1.142,1.365,2.534,2.459,4.181,3.281
    c1.646,0.822,3.516,1.234,5.61,1.234c1.87,0,3.637-0.383,5.302-1.148c1.664-0.768,2.946-1.863,3.845-3.283h0.111v3.646h8.474V0.002
    h-9.202V17.964z M21.742,31.539c-0.318,0.863-0.768,1.63-1.346,2.303c-0.581,0.672-1.282,1.215-2.104,1.626
    c-0.823,0.412-1.759,0.617-2.806,0.617c-1.085,0-2.039-0.205-2.861-0.617c-0.823-0.411-1.515-0.954-2.076-1.626
    c-0.561-0.673-0.981-1.449-1.263-2.329c-0.28-0.877-0.421-1.767-0.421-2.664c0-0.898,0.141-1.776,0.421-2.637
    c0.281-0.861,0.702-1.618,1.263-2.273c0.562-0.654,1.253-1.188,2.076-1.598c0.822-0.411,1.776-0.619,2.861-0.619
    c1.047,0,1.982,0.208,2.806,0.619c0.822,0.41,1.523,0.953,2.104,1.627c0.578,0.672,1.027,1.438,1.346,2.3
    c0.317,0.861,0.477,1.739,0.477,2.637C22.219,29.802,22.06,30.681,21.742,31.539 M37.862,42.929h9.202V14.99h-9.202V42.929z
     M70.427,14.205c-1.721,0-3.235,0.452-4.545,1.355c-1.31,0.905-2.318,2.072-3.029,3.503H62.74v-4.039h-8.865v27.905h9.202V28.605
    c0-0.56,0.112-1.211,0.336-1.958c0.225-0.745,0.59-1.435,1.095-2.069c0.505-0.634,1.179-1.175,2.021-1.622
    c0.841-0.448,1.879-0.673,3.113-0.673c0.373,0,0.758,0.019,1.15,0.057s0.794,0.112,1.206,0.224l0.393-8.136
    c-0.224-0.073-0.514-0.13-0.87-0.166C71.165,14.224,70.801,14.205,70.427,14.205 M99.767,18.132c-1.234-1.309-2.713-2.309-4.433-3
    c-1.721-0.693-3.61-1.039-5.667-1.039c-2.132,0-4.115,0.355-5.948,1.066s-3.422,1.71-4.769,2.999
    c-1.348,1.292-2.413,2.863-3.198,4.714c-0.786,1.852-1.179,3.918-1.179,6.2c0,2.355,0.401,4.451,1.207,6.285
    c0.804,1.832,1.906,3.373,3.31,4.627s3.039,2.207,4.91,2.861c1.87,0.654,3.853,0.982,5.947,0.982c2.843,0,5.339-0.516,7.491-1.545
    c2.15-1.027,3.88-2.494,5.189-4.401l-6.396-4.04c-0.638,0.859-1.459,1.562-2.47,2.104c-1.01,0.543-2.245,0.814-3.703,0.814
    c-0.823,0-1.618-0.132-2.385-0.393c-0.767-0.263-1.459-0.627-2.076-1.094c-0.616-0.47-1.121-1.021-1.515-1.656
    c-0.393-0.637-0.627-1.347-0.701-2.133h20.255c0.037-0.336,0.057-0.692,0.057-1.065v-1.122c0-2.393-0.347-4.526-1.038-6.396
    C101.964,21.03,101.001,19.441,99.767,18.132 M83.383,25.762c0.037-0.71,0.225-1.393,0.562-2.048
    c0.336-0.654,0.785-1.225,1.346-1.711c0.561-0.486,1.215-0.868,1.964-1.151c0.748-0.28,1.571-0.42,2.469-0.42
    c1.832,0,3.207,0.525,4.124,1.571c0.916,1.047,1.375,2.299,1.375,3.759H83.383z M118.675,23.938c0.562-0.654,1.234-1.178,2.021-1.57
    c0.785-0.393,1.664-0.589,2.637-0.589c0.935,0,1.852,0.205,2.749,0.617c0.898,0.411,1.608,0.953,2.132,1.627l5.331-6.171
    c-0.561-0.562-1.226-1.075-1.992-1.543c-0.767-0.467-1.608-0.86-2.524-1.177c-0.917-0.318-1.871-0.572-2.862-0.759
    c-0.991-0.188-1.991-0.28-3.001-0.28c-2.17,0-4.212,0.346-6.125,1.039c-1.913,0.691-3.575,1.681-4.986,2.971
    c-1.411,1.292-2.521,2.854-3.331,4.686c-0.809,1.832-1.213,3.89-1.213,6.171c0,2.318,0.404,4.395,1.213,6.227
    c0.811,1.833,1.92,3.395,3.331,4.684c1.411,1.291,3.073,2.273,4.986,2.947c1.913,0.672,3.973,1.01,6.181,1.01
    c2.057,0,4.002-0.318,5.835-0.953c1.832-0.637,3.329-1.516,4.489-2.637l-5.105-6.229c-0.562,0.675-1.301,1.188-2.218,1.544
    c-0.916,0.355-1.842,0.532-2.776,0.532c-1.011,0-1.917-0.187-2.722-0.562c-0.805-0.373-1.497-0.887-2.075-1.543
    c-0.58-0.654-1.021-1.41-1.319-2.271c-0.299-0.86-0.449-1.776-0.449-2.748c0-0.973,0.159-1.888,0.478-2.749
    C117.674,25.35,118.114,24.593,118.675,23.938 M148.867,7.64h-9.034v7.35H135.4v6.845h4.488v11.811c0,1.5,0.169,2.86,0.505,4.079
    c0.338,1.22,0.889,2.269,1.656,3.15c0.767,0.881,1.785,1.557,3.058,2.022c1.271,0.471,2.843,0.704,4.714,0.704
    c0.972,0,1.943-0.084,2.917-0.253c0.973-0.166,1.775-0.363,2.413-0.587l-0.112-6.733c-0.337,0.149-0.758,0.262-1.263,0.338
    c-0.506,0.074-0.982,0.11-1.432,0.11c-1.309,0-2.216-0.327-2.721-0.985c-0.505-0.657-0.757-1.643-0.757-2.957V21.835h6.564V14.99
    h-6.564V7.64z M160.285,42.929h9.37V0.001h-9.37V42.929z M195.313,14.99l-5.556,17.955h-0.168l-6.228-17.955H173.15l11.67,27.49
    l-0.897,2.301c-0.449,1.196-0.992,2.121-1.627,2.778c-0.637,0.652-1.665,0.979-3.086,0.979c-0.449,0-0.945-0.045-1.487-0.139
    c-0.543-0.094-1.038-0.217-1.486-0.365l-1.011,7.742c0.674,0.187,1.468,0.336,2.385,0.448s1.805,0.169,2.666,0.169
    c1.758,0,3.281-0.205,4.572-0.617c1.29-0.414,2.412-1.02,3.366-1.824c0.954-0.803,1.776-1.775,2.469-2.916
    c0.692-1.143,1.319-2.44,1.881-3.899l12.512-32.147H195.313z"/>
        <path fill-rule="evenodd" fill="#0ABBCC" d="M42.463,0c-3.087,0-5.59,2.501-5.59,5.587c0,3.085,2.503,5.586,5.59,5.586s5.59-2.501,5.59-5.586
    C48.053,2.501,45.55,0,42.463,0"/>
    </symbol>

    <symbol id="monochrome" viewBox="0 0 205.076 56.392">
        <path fill="#2F4550" d="M21.827,17.962h-0.113c-0.785-0.936-1.889-1.795-3.31-2.581c-1.422-0.786-3.161-1.178-5.218-1.178
            c-2.02,0-3.844,0.392-5.471,1.178c-1.627,0.786-3.011,1.851-4.152,3.197c-1.141,1.348-2.02,2.907-2.637,4.685
            C0.309,25.04,0,26.9,0,28.846c0,1.943,0.299,3.814,0.898,5.609c0.598,1.796,1.467,3.377,2.609,4.741
            c1.141,1.365,2.534,2.46,4.18,3.281c1.646,0.822,3.516,1.234,5.611,1.234c1.87,0,3.637-0.383,5.302-1.149
            c1.664-0.767,2.946-1.861,3.844-3.281h0.112v3.646h8.473V0h-9.202V17.962z M21.743,31.537c-0.319,0.861-0.768,1.629-1.347,2.302
            c-0.581,0.672-1.282,1.215-2.104,1.626c-0.823,0.412-1.759,0.617-2.806,0.617c-1.085,0-2.039-0.205-2.861-0.617
            c-0.823-0.411-1.515-0.954-2.076-1.626c-0.561-0.673-0.982-1.449-1.263-2.329c-0.28-0.877-0.421-1.766-0.421-2.664
            c0-0.897,0.141-1.776,0.421-2.637c0.281-0.862,0.702-1.618,1.263-2.273c0.561-0.653,1.253-1.188,2.076-1.598
            c0.822-0.411,1.776-0.619,2.861-0.619c1.047,0,1.983,0.208,2.806,0.619c0.822,0.41,1.523,0.953,2.104,1.627
            c0.579,0.672,1.028,1.438,1.347,2.3c0.317,0.861,0.476,1.739,0.476,2.637C22.219,29.8,22.06,30.679,21.743,31.537 M37.862,42.927
            h9.202V14.988h-9.202V42.927z M70.427,14.203c-1.721,0-3.236,0.452-4.545,1.354c-1.31,0.905-2.319,2.072-3.03,3.503H62.74v-4.039
            h-8.865v27.905h9.202V28.603c0-0.56,0.112-1.211,0.337-1.958c0.224-0.745,0.589-1.435,1.094-2.068
            c0.505-0.635,1.178-1.176,2.02-1.622c0.841-0.448,1.879-0.673,3.114-0.673c0.373,0,0.757,0.019,1.15,0.057s0.794,0.112,1.206,0.224
            l0.393-8.136c-0.224-0.073-0.514-0.13-0.87-0.166C71.166,14.222,70.801,14.203,70.427,14.203 M99.767,18.13
            c-1.235-1.309-2.713-2.309-4.433-3c-1.721-0.693-3.61-1.039-5.667-1.039c-2.132,0-4.115,0.355-5.948,1.066s-3.422,1.71-4.769,2.999
            c-1.347,1.292-2.413,2.862-3.198,4.714c-0.786,1.852-1.178,3.918-1.178,6.198c0,2.356,0.401,4.452,1.206,6.285
            c0.804,1.833,1.908,3.374,3.31,4.627c1.403,1.254,3.039,2.207,4.91,2.862c1.87,0.654,3.852,0.982,5.947,0.982
            c2.843,0,5.34-0.516,7.491-1.545c2.151-1.027,3.88-2.494,5.19-4.402l-6.396-4.039c-0.637,0.86-1.459,1.562-2.469,2.103
            c-1.01,0.543-2.245,0.815-3.703,0.815c-0.824,0-1.619-0.132-2.385-0.393c-0.767-0.263-1.459-0.627-2.076-1.095
            c-0.617-0.469-1.122-1.02-1.515-1.655c-0.393-0.637-0.627-1.347-0.701-2.134h20.255c0.037-0.336,0.055-0.691,0.055-1.064v-1.122
            c0-2.394-0.346-4.526-1.037-6.396C101.964,21.027,101.001,19.438,99.767,18.13 M83.383,25.76c0.037-0.71,0.224-1.393,0.561-2.048
            c0.336-0.654,0.785-1.225,1.346-1.711s1.215-0.868,1.964-1.151c0.748-0.28,1.571-0.42,2.469-0.42c1.832,0,3.207,0.525,4.124,1.571
            c0.916,1.047,1.375,2.299,1.375,3.759H83.383z M118.676,23.936c0.561-0.653,1.233-1.178,2.02-1.569
            c0.785-0.394,1.664-0.59,2.637-0.59c0.936,0,1.852,0.205,2.749,0.617c0.897,0.411,1.608,0.953,2.132,1.627l5.331-6.171
            c-0.562-0.562-1.226-1.075-1.991-1.543c-0.768-0.467-1.609-0.859-2.525-1.177c-0.918-0.318-1.871-0.572-2.861-0.759
            c-0.992-0.188-1.992-0.28-3.002-0.28c-2.17,0-4.212,0.346-6.125,1.039c-1.913,0.691-3.575,1.681-4.986,2.971
            c-1.41,1.292-2.521,2.854-3.33,4.687s-1.213,3.89-1.213,6.171c0,2.318,0.403,4.395,1.213,6.227c0.81,1.833,1.92,3.395,3.33,4.684
            c1.411,1.291,3.073,2.273,4.986,2.947c1.913,0.673,3.973,1.01,6.182,1.01c2.055,0,4.002-0.318,5.834-0.953
            c1.832-0.638,3.33-1.517,4.489-2.638l-5.106-6.229c-0.561,0.675-1.299,1.188-2.215,1.544c-0.918,0.355-1.844,0.532-2.779,0.532
            c-1.01,0-1.916-0.187-2.721-0.562c-0.805-0.373-1.496-0.887-2.076-1.543c-0.58-0.653-1.02-1.41-1.318-2.271
            c-0.299-0.86-0.449-1.776-0.449-2.748c0-0.974,0.159-1.889,0.477-2.749C117.674,25.347,118.114,24.591,118.676,23.936
             M148.867,7.638h-9.034v7.351H135.4v6.845h4.488v11.811c0,1.5,0.17,2.86,0.506,4.079s0.888,2.269,1.656,3.15
            c0.766,0.881,1.784,1.557,3.057,2.022c1.271,0.471,2.843,0.704,4.714,0.704c0.972,0,1.944-0.084,2.917-0.253
            c0.973-0.166,1.775-0.364,2.412-0.587l-0.111-6.733c-0.337,0.148-0.758,0.262-1.264,0.338c-0.504,0.074-0.981,0.11-1.43,0.11
            c-1.31,0-2.217-0.327-2.722-0.985c-0.505-0.657-0.757-1.643-0.757-2.956v-10.7h6.564v-6.845h-6.564V7.638z M160.285,42.927h9.37V0
            h-9.37V42.927z M195.312,14.988l-5.555,17.952h-0.168l-6.228-17.952H173.15l11.671,27.489l-0.898,2.3
            c-0.448,1.197-0.991,2.122-1.627,2.779c-0.637,0.652-1.665,0.98-3.086,0.98c-0.448,0-0.944-0.046-1.487-0.141
            c-0.543-0.093-1.037-0.216-1.486-0.364l-1.01,7.742c0.672,0.187,1.467,0.336,2.383,0.448c0.918,0.112,1.806,0.169,2.666,0.169
            c1.759,0,3.283-0.206,4.574-0.617c1.289-0.414,2.412-1.02,3.365-1.823c0.954-0.805,1.776-1.776,2.469-2.917
            c0.692-1.143,1.319-2.44,1.881-3.899l12.512-32.146H195.312z"/>
        <path fill="#2F4550" d="M42.463-0.002c-3.087,0-5.59,2.501-5.59,5.586c0,3.086,2.503,5.587,5.59,5.587s5.59-2.501,5.59-5.587
    C48.053,2.499,45.55-0.002,42.463-0.002"/>
    </symbol>

    <symbol id="monochrome-inverted" viewBox="0 0 205.076 56.392">
        <path fill="#FFFFFF" d="M21.827,17.962h-0.113c-0.785-0.936-1.889-1.795-3.31-2.581c-1.422-0.786-3.161-1.178-5.218-1.178
            c-2.02,0-3.844,0.392-5.471,1.178c-1.627,0.786-3.011,1.851-4.152,3.197c-1.141,1.348-2.02,2.907-2.637,4.685
            C0.309,25.04,0,26.9,0,28.846c0,1.943,0.299,3.814,0.898,5.609c0.598,1.796,1.467,3.377,2.609,4.741
            c1.141,1.365,2.534,2.46,4.18,3.281c1.646,0.822,3.516,1.234,5.611,1.234c1.87,0,3.637-0.383,5.302-1.149
            c1.664-0.767,2.946-1.861,3.844-3.281h0.112v3.646h8.473V0h-9.202V17.962z M21.743,31.537c-0.319,0.861-0.768,1.629-1.347,2.302
            c-0.581,0.672-1.282,1.215-2.104,1.626c-0.823,0.412-1.759,0.617-2.806,0.617c-1.085,0-2.039-0.205-2.861-0.617
            c-0.823-0.411-1.515-0.954-2.076-1.626c-0.561-0.673-0.982-1.449-1.263-2.329c-0.28-0.877-0.421-1.766-0.421-2.664
            c0-0.897,0.141-1.776,0.421-2.637c0.281-0.862,0.702-1.618,1.263-2.273c0.561-0.653,1.253-1.188,2.076-1.598
            c0.822-0.411,1.776-0.619,2.861-0.619c1.047,0,1.983,0.208,2.806,0.619c0.822,0.41,1.523,0.953,2.104,1.627
            c0.579,0.672,1.028,1.438,1.347,2.3c0.317,0.861,0.476,1.739,0.476,2.637C22.219,29.8,22.06,30.679,21.743,31.537 M37.862,42.927
            h9.202V14.988h-9.202V42.927z M70.427,14.203c-1.721,0-3.236,0.452-4.545,1.354c-1.31,0.905-2.319,2.072-3.03,3.503H62.74v-4.039
            h-8.865v27.905h9.202V28.603c0-0.56,0.112-1.211,0.337-1.958c0.224-0.745,0.589-1.435,1.094-2.068
            c0.505-0.635,1.178-1.176,2.02-1.622c0.841-0.448,1.879-0.673,3.114-0.673c0.373,0,0.757,0.019,1.15,0.057s0.794,0.112,1.206,0.224
            l0.393-8.136c-0.224-0.073-0.514-0.13-0.87-0.166C71.166,14.222,70.801,14.203,70.427,14.203 M99.767,18.13
            c-1.235-1.309-2.713-2.309-4.433-3c-1.721-0.693-3.61-1.039-5.667-1.039c-2.132,0-4.115,0.355-5.948,1.066s-3.422,1.71-4.769,2.999
            c-1.347,1.292-2.413,2.862-3.198,4.714c-0.786,1.852-1.178,3.918-1.178,6.198c0,2.356,0.401,4.452,1.206,6.285
            c0.804,1.833,1.908,3.374,3.31,4.627c1.403,1.254,3.039,2.207,4.91,2.862c1.87,0.654,3.852,0.982,5.947,0.982
            c2.843,0,5.34-0.516,7.491-1.545c2.151-1.027,3.88-2.494,5.19-4.402l-6.396-4.039c-0.637,0.86-1.459,1.562-2.469,2.103
            c-1.01,0.543-2.245,0.815-3.703,0.815c-0.824,0-1.619-0.132-2.385-0.393c-0.767-0.263-1.459-0.627-2.076-1.095
            c-0.617-0.469-1.122-1.02-1.515-1.655c-0.393-0.637-0.627-1.347-0.701-2.134h20.255c0.037-0.336,0.055-0.691,0.055-1.064v-1.122
            c0-2.394-0.346-4.526-1.037-6.396C101.964,21.027,101.001,19.438,99.767,18.13 M83.383,25.76c0.037-0.71,0.224-1.393,0.561-2.048
            c0.336-0.654,0.785-1.225,1.346-1.711s1.215-0.868,1.964-1.151c0.748-0.28,1.571-0.42,2.469-0.42c1.832,0,3.207,0.525,4.124,1.571
            c0.916,1.047,1.375,2.299,1.375,3.759H83.383z M118.676,23.936c0.561-0.653,1.233-1.178,2.02-1.569
            c0.785-0.394,1.664-0.59,2.637-0.59c0.936,0,1.852,0.205,2.749,0.617c0.897,0.411,1.608,0.953,2.132,1.627l5.331-6.171
            c-0.562-0.562-1.226-1.075-1.991-1.543c-0.768-0.467-1.609-0.859-2.525-1.177c-0.918-0.318-1.871-0.572-2.861-0.759
            c-0.992-0.188-1.992-0.28-3.002-0.28c-2.17,0-4.212,0.346-6.125,1.039c-1.913,0.691-3.575,1.681-4.986,2.971
            c-1.41,1.292-2.521,2.854-3.33,4.687s-1.213,3.89-1.213,6.171c0,2.318,0.403,4.395,1.213,6.227c0.81,1.833,1.92,3.395,3.33,4.684
            c1.411,1.291,3.073,2.273,4.986,2.947c1.913,0.673,3.973,1.01,6.182,1.01c2.055,0,4.002-0.318,5.834-0.953
            c1.832-0.638,3.33-1.517,4.489-2.638l-5.106-6.229c-0.561,0.675-1.299,1.188-2.215,1.544c-0.918,0.355-1.844,0.532-2.779,0.532
            c-1.01,0-1.916-0.187-2.721-0.562c-0.805-0.373-1.496-0.887-2.076-1.543c-0.58-0.653-1.02-1.41-1.318-2.271
            c-0.299-0.86-0.449-1.776-0.449-2.748c0-0.974,0.159-1.889,0.477-2.749C117.674,25.347,118.114,24.591,118.676,23.936
             M148.867,7.638h-9.034v7.351H135.4v6.845h4.488v11.811c0,1.5,0.17,2.86,0.506,4.079s0.888,2.269,1.656,3.15
            c0.766,0.881,1.784,1.557,3.057,2.022c1.271,0.471,2.843,0.704,4.714,0.704c0.972,0,1.944-0.084,2.917-0.253
            c0.973-0.166,1.775-0.364,2.412-0.587l-0.111-6.733c-0.337,0.148-0.758,0.262-1.264,0.338c-0.504,0.074-0.981,0.11-1.43,0.11
            c-1.31,0-2.217-0.327-2.722-0.985c-0.505-0.657-0.757-1.643-0.757-2.956v-10.7h6.564v-6.845h-6.564V7.638z M160.285,42.927h9.37V0
            h-9.37V42.927z M195.312,14.988l-5.555,17.952h-0.168l-6.228-17.952H173.15l11.671,27.489l-0.898,2.3
            c-0.448,1.197-0.991,2.122-1.627,2.779c-0.637,0.652-1.665,0.98-3.086,0.98c-0.448,0-0.944-0.046-1.487-0.141
            c-0.543-0.093-1.037-0.216-1.486-0.364l-1.01,7.742c0.672,0.187,1.467,0.336,2.383,0.448c0.918,0.112,1.806,0.169,2.666,0.169
            c1.759,0,3.283-0.206,4.574-0.617c1.289-0.414,2.412-1.02,3.365-1.823c0.954-0.805,1.776-1.776,2.469-2.917
            c0.692-1.143,1.319-2.44,1.881-3.899l12.512-32.146H195.312z"/>
        <path fill="#FFFFFF" d="M42.463-0.002c-3.087,0-5.59,2.501-5.59,5.586c0,3.086,2.503,5.587,5.59,5.587s5.59-2.501,5.59-5.587
    C48.053,2.499,45.55-0.002,42.463-0.002"/>
    </symbol>

</svg>