<?xml version="1.0" standalone="no"?>
<!DOCTYPE svg PUBLIC "-//W3C//DTD SVG 20010904//EN"
 "http://www.w3.org/TR/2001/REC-SVG-20010904/DTD/svg10.dtd">
<svg version="1.0" xmlns="http://www.w3.org/2000/svg"
 width="260.000000pt" height="260.000000pt" viewBox="0 0 260.000000 260.000000"
 preserveAspectRatio="xMidYMid meet">
<metadata>
Created by potrace 1.11, written by Peter Selinger 2001-2013
</metadata>
<g transform="translate(0.000000,260.000000) scale(0.100000,-0.100000)"
fill="#000000" stroke="none">
<path d="M0 1300 l0 -1300 1300 0 1300 0 0 1300 0 1300 -1300 0 -1300 0 0
-1300z m1820 -5 l0 -845 -165 0 -165 0 0 71 0 72 -53 -50 c-64 -60 -115 -88
-199 -108 -176 -41 -340 5 -469 134 -251 251 -215 736 70 925 97 65 155 81
286 81 103 0 114 -2 176 -31 37 -18 84 -48 106 -68 22 -20 43 -36 47 -36 3 0
6 158 6 350 l0 350 180 0 180 0 0 -845z"/>
<path d="M1160 1281 c-120 -25 -198 -119 -208 -252 -11 -164 85 -291 232 -306
109 -11 199 41 254 147 32 61 34 70 30 145 -5 95 -27 143 -90 202 -60 54 -143
79 -218 64z"/>
</g>
</svg>